<svg xmlns="http://www.w3.org/2000/svg" xmlns:xlink="http://www.w3.org/1999/xlink" width="400" zoomAndPan="magnify" viewBox="0 0 300 225" height="300" preserveAspectRatio="xMidYMid meet" version="1.0"><defs><g/><clipPath id="32821ad73a"><path d="M 22.5 41 L 277.351562 41 L 277.351562 124.628906 L 22.5 124.628906 Z M 22.5 41 " clip-rule="nonzero"/></clipPath><clipPath id="fb392c535d"><path d="M 77 3.878906 L 83 3.878906 L 83 42 L 77 42 Z M 77 3.878906 " clip-rule="nonzero"/></clipPath></defs><path fill="#333333" d="M 88.589844 54.140625 C 89.582031 54.550781 90.570312 54.957031 91.554688 55.367188 C 92.53125 55.769531 93.507812 56.175781 94.480469 56.578125 C 94.480469 57.828125 94.480469 59.066406 94.480469 60.308594 C 93.507812 59.914062 92.53125 59.519531 91.554688 59.125 C 90.570312 58.726562 89.582031 58.324219 88.589844 57.925781 C 88.589844 56.664062 88.589844 55.410156 88.589844 54.140625 M 81.496094 56.585938 C 82.519531 56.996094 83.539062 57.40625 84.554688 57.8125 C 85.566406 58.21875 86.574219 58.625 87.574219 59.027344 C 87.574219 60.285156 87.574219 61.546875 87.574219 62.808594 C 86.574219 62.414062 85.566406 62.019531 84.554688 61.621094 C 83.539062 61.222656 82.519531 60.824219 81.496094 60.421875 C 81.496094 59.140625 81.496094 57.863281 81.496094 56.585938 Z M 88.589844 59.433594 C 89.582031 59.832031 90.570312 60.230469 91.554688 60.625 C 92.53125 61.015625 93.507812 61.410156 94.480469 61.796875 C 94.480469 63.039062 94.480469 64.28125 94.480469 65.519531 C 93.507812 65.140625 92.53125 64.753906 91.554688 64.371094 C 90.570312 63.984375 89.582031 63.597656 88.589844 63.207031 C 88.589844 61.949219 88.589844 60.691406 88.589844 59.433594 Z M 81.496094 61.953125 C 82.519531 62.351562 83.539062 62.75 84.554688 63.144531 C 85.566406 63.539062 86.574219 63.929688 87.574219 64.320312 C 87.574219 65.589844 87.574219 66.847656 87.574219 68.109375 C 86.574219 67.726562 85.566406 67.34375 84.554688 66.960938 C 83.539062 66.574219 82.519531 66.183594 81.496094 65.792969 C 81.496094 64.515625 81.496094 63.238281 81.496094 61.953125 Z M 88.589844 64.714844 C 89.582031 65.101562 90.570312 65.488281 91.554688 65.871094 C 92.53125 66.25 93.507812 66.632812 94.480469 67.011719 C 94.480469 68.253906 94.480469 69.496094 94.480469 70.738281 C 93.507812 70.367188 92.53125 69.996094 91.554688 69.625 C 90.570312 69.25 89.582031 68.875 88.589844 68.496094 C 88.589844 67.238281 88.589844 65.980469 88.589844 64.714844 Z M 81.496094 67.328125 C 82.519531 67.714844 83.539062 68.101562 84.554688 68.480469 C 85.566406 68.863281 86.574219 69.242188 87.574219 69.621094 C 87.574219 70.882812 87.574219 72.144531 87.574219 73.402344 C 86.574219 73.035156 85.566406 72.664062 84.554688 72.292969 C 83.539062 71.917969 82.519531 71.539062 81.496094 71.164062 C 81.496094 69.886719 81.496094 68.605469 81.496094 67.328125 Z M 88.589844 70.003906 C 89.582031 70.378906 90.570312 70.75 91.554688 71.121094 C 92.53125 71.492188 93.507812 71.859375 94.480469 72.226562 C 94.480469 73.464844 94.480469 74.707031 94.480469 75.949219 C 93.507812 75.589844 92.53125 75.230469 91.554688 74.871094 C 90.570312 74.507812 89.582031 74.144531 88.589844 73.777344 C 88.589844 72.519531 88.589844 71.261719 88.589844 70.003906 Z M 81.496094 72.695312 C 82.519531 73.070312 83.539062 73.445312 84.554688 73.816406 C 85.566406 74.183594 86.574219 74.550781 87.574219 74.917969 C 87.574219 76.175781 87.574219 77.4375 87.574219 78.699219 C 86.574219 78.34375 85.566406 77.984375 84.554688 77.621094 C 83.539062 77.261719 82.519531 76.898438 81.496094 76.53125 C 81.496094 75.253906 81.496094 73.976562 81.496094 72.695312 Z M 88.589844 75.285156 C 89.582031 75.648438 90.570312 76.011719 91.554688 76.367188 C 92.53125 76.726562 93.507812 77.082031 94.480469 77.4375 C 94.480469 78.679688 94.480469 79.917969 94.480469 81.160156 C 93.507812 80.8125 92.53125 80.464844 91.554688 80.117188 C 90.570312 79.765625 89.582031 79.414062 88.589844 79.0625 C 88.589844 77.800781 88.589844 76.546875 88.589844 75.285156 Z M 81.496094 78.070312 C 82.519531 78.433594 83.539062 78.792969 84.554688 79.152344 C 85.566406 79.507812 86.574219 79.863281 87.574219 80.21875 C 87.574219 81.476562 87.574219 82.738281 87.574219 84 C 86.574219 83.65625 85.566406 83.308594 84.554688 82.960938 C 83.539062 82.609375 82.519531 82.257812 81.496094 81.90625 C 81.496094 80.628906 81.496094 79.351562 81.496094 78.070312 Z M 88.589844 80.574219 C 89.582031 80.925781 90.570312 81.273438 91.554688 81.621094 C 92.53125 81.96875 93.507812 82.3125 94.480469 82.65625 L 94.480469 83.757812 L 91.835938 85.464844 L 91.554688 85.371094 C 90.570312 85.03125 89.582031 84.691406 88.589844 84.347656 C 88.589844 83.089844 88.589844 81.832031 88.589844 80.574219 Z M 81.496094 83.441406 C 82.519531 83.789062 83.539062 84.136719 84.554688 84.484375 C 85.566406 84.828125 86.570312 85.171875 87.574219 85.511719 L 87.574219 88.222656 L 86.480469 88.929688 L 84.554688 88.292969 C 83.539062 87.953125 82.519531 87.613281 81.496094 87.273438 C 81.496094 85.996094 81.496094 84.71875 81.496094 83.441406 Z M 88.589844 85.859375 L 90.320312 86.449219 L 88.589844 87.566406 Z M 81.496094 88.808594 C 82.519531 89.144531 83.539062 89.480469 84.554688 89.816406 L 84.925781 89.9375 L 81.496094 92.15625 Z M 73.171875 54.140625 C 72.179688 54.550781 71.191406 54.957031 70.210938 55.367188 C 69.230469 55.769531 68.253906 56.175781 67.28125 56.578125 C 67.28125 57.828125 67.28125 59.066406 67.28125 60.308594 C 68.253906 59.914062 69.230469 59.519531 70.210938 59.125 C 71.191406 58.726562 72.179688 58.324219 73.171875 57.925781 C 73.171875 56.664062 73.171875 55.410156 73.171875 54.140625 Z M 80.265625 56.585938 C 79.242188 56.996094 78.222656 57.40625 77.207031 57.8125 C 76.195312 58.21875 75.1875 58.625 74.1875 59.027344 C 74.1875 60.285156 74.1875 61.546875 74.1875 62.808594 C 75.1875 62.414062 76.195312 62.019531 77.207031 61.621094 C 78.222656 61.222656 79.242188 60.824219 80.265625 60.421875 C 80.265625 59.140625 80.265625 57.863281 80.265625 56.585938 Z M 73.171875 59.433594 C 72.179688 59.832031 71.191406 60.230469 70.210938 60.625 C 69.230469 61.015625 68.253906 61.410156 67.28125 61.796875 C 67.28125 63.039062 67.28125 64.28125 67.28125 65.519531 C 68.253906 65.140625 69.230469 64.753906 70.210938 64.371094 C 71.191406 63.984375 72.179688 63.597656 73.171875 63.207031 C 73.171875 61.949219 73.171875 60.691406 73.171875 59.433594 Z M 80.265625 61.953125 C 79.242188 62.351562 78.222656 62.75 77.207031 63.144531 C 76.195312 63.539062 75.1875 63.929688 74.1875 64.320312 C 74.1875 65.589844 74.1875 66.847656 74.1875 68.109375 C 75.1875 67.726562 76.195312 67.34375 77.207031 66.960938 C 78.222656 66.574219 79.242188 66.183594 80.265625 65.792969 C 80.265625 64.515625 80.265625 63.238281 80.265625 61.953125 Z M 73.171875 64.714844 C 72.179688 65.101562 71.191406 65.488281 70.210938 65.871094 C 69.230469 66.25 68.253906 66.632812 67.28125 67.011719 C 67.28125 68.253906 67.28125 69.496094 67.28125 70.738281 C 68.253906 70.367188 69.230469 69.996094 70.210938 69.625 C 71.191406 69.25 72.179688 68.875 73.171875 68.496094 C 73.171875 67.238281 73.171875 65.980469 73.171875 64.714844 Z M 80.265625 67.328125 C 79.242188 67.714844 78.222656 68.101562 77.207031 68.480469 C 76.195312 68.863281 75.1875 69.242188 74.1875 69.621094 C 74.1875 70.882812 74.1875 72.144531 74.1875 73.402344 C 75.1875 73.035156 76.195312 72.664062 77.207031 72.292969 C 78.222656 71.917969 79.242188 71.539062 80.265625 71.164062 C 80.265625 69.886719 80.265625 68.605469 80.265625 67.328125 Z M 73.171875 70.003906 C 72.179688 70.378906 71.191406 70.75 70.210938 71.121094 C 69.230469 71.492188 68.253906 71.859375 67.28125 72.226562 C 67.28125 73.464844 67.28125 74.707031 67.28125 75.949219 C 68.253906 75.589844 69.230469 75.230469 70.210938 74.871094 C 71.191406 74.507812 72.179688 74.144531 73.171875 73.777344 C 73.171875 72.519531 73.171875 71.261719 73.171875 70.003906 Z M 80.265625 72.695312 C 79.242188 73.070312 78.222656 73.445312 77.207031 73.816406 C 76.195312 74.183594 75.1875 74.550781 74.1875 74.917969 C 74.1875 76.175781 74.1875 77.4375 74.1875 78.699219 C 75.1875 78.34375 76.195312 77.984375 77.207031 77.621094 C 78.222656 77.261719 79.242188 76.898438 80.265625 76.53125 C 80.265625 75.253906 80.265625 73.976562 80.265625 72.695312 Z M 73.171875 75.285156 C 72.179688 75.648438 71.191406 76.011719 70.210938 76.367188 C 69.230469 76.726562 68.253906 77.082031 67.28125 77.4375 C 67.28125 78.679688 67.28125 79.917969 67.28125 81.160156 C 68.253906 80.8125 69.230469 80.464844 70.210938 80.117188 C 71.191406 79.765625 72.179688 79.414062 73.171875 79.0625 C 73.171875 77.800781 73.171875 76.546875 73.171875 75.285156 Z M 80.265625 78.070312 C 79.242188 78.433594 78.222656 78.792969 77.207031 79.152344 C 76.195312 79.507812 75.1875 79.863281 74.1875 80.21875 C 74.1875 81.476562 74.1875 82.738281 74.1875 84 C 75.1875 83.65625 76.195312 83.308594 77.207031 82.960938 C 78.222656 82.609375 79.242188 82.257812 80.265625 81.90625 C 80.265625 80.628906 80.265625 79.351562 80.265625 78.070312 Z M 73.171875 80.574219 C 72.179688 80.925781 71.191406 81.273438 70.210938 81.621094 C 69.230469 81.96875 68.253906 82.3125 67.28125 82.65625 C 67.28125 83.894531 67.28125 85.136719 67.28125 86.375 C 68.253906 86.042969 69.230469 85.707031 70.210938 85.367188 C 71.191406 85.03125 72.179688 84.6875 73.171875 84.347656 C 73.171875 83.089844 73.171875 81.832031 73.171875 80.574219 Z M 80.265625 83.441406 C 79.242188 83.789062 78.222656 84.136719 77.207031 84.484375 C 76.195312 84.828125 75.191406 85.171875 74.1875 85.511719 C 74.1875 86.773438 74.1875 88.035156 74.1875 89.292969 C 75.191406 88.960938 76.195312 88.625 77.207031 88.292969 C 78.222656 87.953125 79.242188 87.613281 80.265625 87.273438 C 80.265625 85.996094 80.265625 84.71875 80.265625 83.441406 Z M 73.171875 85.859375 C 72.179688 86.195312 71.191406 86.53125 70.210938 86.867188 C 69.230469 87.199219 68.253906 87.535156 67.28125 87.863281 C 67.28125 89.105469 67.28125 90.347656 67.28125 91.585938 C 68.253906 91.265625 69.230469 90.941406 70.210938 90.617188 C 71.191406 90.289062 72.179688 89.960938 73.171875 89.628906 C 73.171875 88.375 73.171875 87.117188 73.171875 85.859375 Z M 80.265625 88.808594 C 79.242188 89.144531 78.222656 89.480469 77.207031 89.816406 C 76.195312 90.148438 75.191406 90.476562 74.1875 90.808594 C 74.1875 92.074219 74.1875 93.335938 74.1875 94.59375 C 75.191406 94.273438 76.195312 93.953125 77.207031 93.628906 C 78.222656 93.304688 79.242188 92.976562 80.265625 92.648438 C 80.265625 91.371094 80.265625 90.09375 80.265625 88.808594 Z M 73.171875 91.140625 C 72.179688 91.46875 71.191406 91.789062 70.210938 92.117188 C 69.230469 92.4375 68.253906 92.757812 67.28125 93.078125 C 67.28125 94.324219 67.28125 95.5625 67.28125 96.804688 C 68.253906 96.492188 69.230469 96.179688 70.207031 95.867188 C 71.191406 95.554688 72.179688 95.238281 73.171875 94.917969 C 73.171875 93.660156 73.171875 92.402344 73.171875 91.140625 Z M 76.535156 95.367188 L 74.1875 96.109375 L 74.1875 96.882812 Z M 73.171875 96.429688 C 72.179688 96.742188 71.191406 97.054688 70.207031 97.367188 C 69.230469 97.675781 68.253906 97.984375 67.28125 98.292969 L 67.28125 101.351562 L 73.171875 97.539062 Z M 80.265625 51.207031 C 79.242188 51.628906 78.222656 52.050781 77.207031 52.472656 C 76.195312 52.890625 75.1875 53.304688 74.1875 53.71875 C 74.1875 54.992188 74.1875 56.253906 74.1875 57.511719 C 75.1875 57.105469 76.195312 56.699219 77.207031 56.289062 C 78.222656 55.878906 79.242188 55.464844 80.265625 55.050781 C 80.265625 53.773438 80.265625 52.496094 80.265625 51.207031 Z M 81.496094 51.207031 C 82.519531 51.628906 83.539062 52.050781 84.554688 52.472656 C 85.566406 52.890625 86.574219 53.304688 87.574219 53.71875 C 87.574219 54.992188 87.574219 56.253906 87.574219 57.511719 C 86.574219 57.105469 85.566406 56.699219 84.554688 56.289062 C 83.539062 55.878906 82.519531 55.464844 81.496094 55.050781 C 81.496094 53.773438 81.496094 52.496094 81.496094 51.207031 Z M 81.496094 51.207031 " fill-opacity="1" fill-rule="evenodd"/><path fill="#333333" d="M 80.882812 43.734375 L 96.972656 50.289062 L 96.972656 56.484375 L 80.882812 49.925781 L 64.789062 56.484375 L 64.789062 50.289062 Z M 80.882812 43.734375 " fill-opacity="1" fill-rule="evenodd"/><g clip-path="url(#32821ad73a)"><path fill="#333333" d="M 252.902344 124.652344 L 149.855469 57.308594 L 46.804688 124.652344 L 53.359375 124.652344 L 149.855469 61.59375 L 246.347656 124.652344 Z M 149.855469 54.566406 L 257.09375 124.652344 L 277.191406 124.652344 L 149.855469 41.4375 L 22.515625 124.652344 L 42.613281 124.652344 Z M 149.855469 54.566406 " fill-opacity="1" fill-rule="evenodd"/></g><path fill="#333333" d="M 137.085938 100.550781 L 148.925781 100.550781 L 148.925781 88.71875 C 145.773438 88.949219 142.929688 90.332031 140.8125 92.445312 C 138.695312 94.558594 137.3125 97.398438 137.085938 100.550781 M 150.78125 88.71875 L 150.78125 100.550781 L 162.621094 100.550781 C 162.394531 97.398438 161.007812 94.558594 158.894531 92.445312 C 156.78125 90.332031 153.933594 88.949219 150.78125 88.71875 Z M 162.65625 102.402344 L 150.78125 102.402344 L 150.78125 114.265625 L 162.65625 114.265625 Z M 148.925781 102.402344 L 137.050781 102.402344 L 137.050781 114.265625 L 148.925781 114.265625 Z M 148.925781 102.402344 " fill-opacity="1" fill-rule="evenodd"/><g clip-path="url(#fb392c535d)"><path fill="#c39c78" d="M 78.738281 3.878906 C 86.988281 21.128906 76.65625 27.3125 80.878906 41.964844 C 73.664062 29.636719 82.449219 16.960938 78.738281 3.878906 " fill-opacity="1" fill-rule="evenodd"/></g><path fill="#c39c78" d="M 72.566406 6.980469 C 80.820312 21.828125 70.484375 27.148438 74.710938 39.765625 C 67.492188 29.152344 76.28125 18.238281 72.566406 6.980469 " fill-opacity="1" fill-rule="evenodd"/><path fill="#c39c78" d="M 84.90625 6.980469 C 93.160156 21.828125 82.828125 27.148438 87.050781 39.765625 C 79.832031 29.152344 88.621094 18.238281 84.90625 6.980469 " fill-opacity="1" fill-rule="evenodd"/><g fill="#333333" fill-opacity="1"><g transform="translate(8.474452, 176.46581)"><g><path d="M 0.484375 -39.140625 L 0.484375 -45.828125 L 21.921875 -45.828125 L 21.921875 -39.140625 L 14.8125 -39.140625 L 14.8125 0.0625 L 7.515625 0.0625 L 7.515625 -39.140625 Z M 0.484375 -39.140625 "/></g></g></g><g fill="#333333" fill-opacity="1"><g transform="translate(30.875094, 176.46581)"><g><path d="M 26.390625 -26.328125 L 26.390625 -45.828125 L 33.703125 -45.828125 L 33.703125 -0.0625 L 26.390625 -0.0625 L 26.390625 -19.640625 L 10.265625 -19.640625 L 10.265625 -0.0625 L 2.96875 -0.0625 L 2.96875 -45.828125 L 10.265625 -45.828125 L 10.265625 -26.328125 Z M 26.390625 -26.328125 "/></g></g></g><g fill="#333333" fill-opacity="1"><g transform="translate(67.543217, 176.46581)"><g><path d="M 20.125 -45.828125 C 23.570312 -45.828125 26.726562 -45.253906 29.59375 -44.109375 C 32.46875 -42.960938 34.894531 -41.285156 36.875 -39.078125 C 38.757812 -37.015625 40.191406 -34.601562 41.171875 -31.84375 C 42.160156 -29.082031 42.65625 -26.140625 42.65625 -23.015625 C 42.65625 -16.265625 41.003906 -10.957031 37.703125 -7.09375 C 33.742188 -2.5 27.882812 -0.203125 20.125 -0.203125 L 2.96875 -0.203125 L 2.96875 -45.828125 Z M 35.359375 -23.015625 C 35.359375 -27.609375 34.070312 -31.304688 31.5 -34.109375 C 28.789062 -37.097656 25 -38.59375 20.125 -38.59375 L 10.265625 -38.59375 L 10.265625 -7.4375 L 20.125 -7.4375 C 25.3125 -7.4375 29.148438 -8.722656 31.640625 -11.296875 C 34.117188 -13.785156 35.359375 -17.691406 35.359375 -23.015625 Z M 35.359375 -23.015625 "/></g></g></g><g fill="#333333" fill-opacity="1"><g transform="translate(111.655252, 176.46581)"><g/></g></g><g fill="#333333" fill-opacity="1"><g transform="translate(130.678562, 176.46581)"><g><path d="M 26.390625 -26.328125 L 26.390625 -45.828125 L 33.703125 -45.828125 L 33.703125 -0.0625 L 26.390625 -0.0625 L 26.390625 -19.640625 L 10.265625 -19.640625 L 10.265625 -0.0625 L 2.96875 -0.0625 L 2.96875 -45.828125 L 10.265625 -45.828125 L 10.265625 -26.328125 Z M 26.390625 -26.328125 "/></g></g></g><g fill="#333333" fill-opacity="1"><g transform="translate(167.346685, 176.46581)"><g><path d="M 23.984375 -46.59375 C 27.109375 -46.59375 30.023438 -45.984375 32.734375 -44.765625 C 35.441406 -43.546875 37.828125 -41.84375 39.890625 -39.65625 C 41.960938 -37.476562 43.582031 -34.960938 44.75 -32.109375 C 45.925781 -29.265625 46.515625 -26.210938 46.515625 -22.953125 C 46.515625 -19.734375 45.925781 -16.695312 44.75 -13.84375 C 43.582031 -11 41.960938 -8.484375 39.890625 -6.296875 C 37.828125 -4.117188 35.441406 -2.421875 32.734375 -1.203125 C 30.023438 0.015625 27.109375 0.625 23.984375 0.625 C 20.898438 0.625 17.992188 0.015625 15.265625 -1.203125 C 12.535156 -2.421875 10.132812 -4.117188 8.0625 -6.296875 C 6 -8.484375 4.378906 -11 3.203125 -13.84375 C 2.035156 -16.695312 1.453125 -19.734375 1.453125 -22.953125 C 1.453125 -26.210938 2.035156 -29.265625 3.203125 -32.109375 C 4.378906 -34.960938 6 -37.476562 8.0625 -39.65625 C 10.132812 -41.84375 12.535156 -43.546875 15.265625 -44.765625 C 17.992188 -45.984375 20.898438 -46.59375 23.984375 -46.59375 Z M 39.21875 -22.953125 C 39.21875 -25.984375 38.523438 -28.738281 37.140625 -31.21875 C 35.765625 -33.695312 33.925781 -35.671875 31.625 -37.140625 C 29.332031 -38.617188 26.785156 -39.359375 23.984375 -39.359375 C 21.179688 -39.359375 18.628906 -38.617188 16.328125 -37.140625 C 14.035156 -35.671875 12.195312 -33.695312 10.8125 -31.21875 C 9.4375 -28.738281 8.75 -25.984375 8.75 -22.953125 C 8.75 -19.960938 9.4375 -17.226562 10.8125 -14.75 C 12.195312 -12.269531 14.035156 -10.289062 16.328125 -8.8125 C 18.628906 -7.34375 21.179688 -6.609375 23.984375 -6.609375 C 26.785156 -6.609375 29.332031 -7.34375 31.625 -8.8125 C 33.925781 -10.289062 35.765625 -12.269531 37.140625 -14.75 C 38.523438 -17.226562 39.21875 -19.960938 39.21875 -22.953125 Z M 39.21875 -22.953125 "/></g></g></g><g fill="#333333" fill-opacity="1"><g transform="translate(215.387452, 176.46581)"><g><path d="M 0.484375 -39.140625 L 0.484375 -45.828125 L 21.921875 -45.828125 L 21.921875 -39.140625 L 14.8125 -39.140625 L 14.8125 0.0625 L 7.515625 0.0625 L 7.515625 -39.140625 Z M 0.484375 -39.140625 "/></g></g></g><g fill="#333333" fill-opacity="1"><g transform="translate(237.788094, 176.46581)"><g><path d="M 2.96875 -0.0625 L 2.96875 -45.828125 L 27.09375 -45.828125 L 27.09375 -39.21875 L 9.71875 -39.21875 L 9.71875 -26.328125 L 25.5625 -26.328125 L 25.5625 -19.640625 L 9.71875 -19.640625 L 9.71875 -6.75 L 27.09375 -6.75 L 27.09375 -0.0625 Z M 2.96875 -0.0625 "/></g></g></g><g fill="#333333" fill-opacity="1"><g transform="translate(266.254133, 176.46581)"><g><path d="M 10.265625 -45.828125 L 10.265625 -7.3125 L 27.4375 -7.3125 L 27.4375 -0.0625 L 2.96875 -0.0625 L 2.96875 -45.828125 Z M 10.265625 -45.828125 "/></g></g></g><g fill="#c39c78" fill-opacity="1"><g transform="translate(30.452584, 202.258001)"><g><path d="M 2.671875 -9.328125 L 5.71875 -1.71875 L 8.78125 -9.328125 L 10.375 -9.328125 L 10.375 0 L 9.140625 0 L 9.140625 -3.640625 L 9.25 -7.5625 L 6.1875 0 L 5.25 0 L 2.1875 -7.53125 L 2.3125 -3.640625 L 2.3125 0 L 1.078125 0 L 1.078125 -9.328125 Z M 2.671875 -9.328125 "/></g></g></g><g fill="#c39c78" fill-opacity="1"><g transform="translate(51.091398, 202.258001)"><g><path d="M 8.265625 -4.359375 C 8.265625 -3.453125 8.109375 -2.65625 7.796875 -1.96875 C 7.492188 -1.289062 7.054688 -0.769531 6.484375 -0.40625 C 5.921875 -0.0507812 5.265625 0.125 4.515625 0.125 C 3.785156 0.125 3.132812 -0.0507812 2.5625 -0.40625 C 2 -0.769531 1.554688 -1.285156 1.234375 -1.953125 C 0.921875 -2.617188 0.757812 -3.394531 0.75 -4.28125 L 0.75 -4.953125 C 0.75 -5.847656 0.90625 -6.640625 1.21875 -7.328125 C 1.53125 -8.015625 1.972656 -8.539062 2.546875 -8.90625 C 3.117188 -9.269531 3.769531 -9.453125 4.5 -9.453125 C 5.25 -9.453125 5.910156 -9.269531 6.484375 -8.90625 C 7.054688 -8.550781 7.492188 -8.03125 7.796875 -7.34375 C 8.109375 -6.65625 8.265625 -5.859375 8.265625 -4.953125 Z M 7.03125 -4.96875 C 7.03125 -6.070312 6.804688 -6.921875 6.359375 -7.515625 C 5.921875 -8.109375 5.300781 -8.40625 4.5 -8.40625 C 3.726562 -8.40625 3.117188 -8.109375 2.671875 -7.515625 C 2.222656 -6.921875 1.992188 -6.097656 1.984375 -5.046875 L 1.984375 -4.359375 C 1.984375 -3.285156 2.207031 -2.441406 2.65625 -1.828125 C 3.101562 -1.222656 3.722656 -0.921875 4.515625 -0.921875 C 5.304688 -0.921875 5.921875 -1.207031 6.359375 -1.78125 C 6.796875 -2.363281 7.019531 -3.195312 7.03125 -4.28125 Z M 7.03125 -4.96875 "/></g></g></g><g fill="#c39c78" fill-opacity="1"><g transform="translate(69.294236, 202.258001)"><g><path d="M 1.078125 0 L 1.078125 -9.328125 L 3.71875 -9.328125 C 4.53125 -9.328125 5.25 -9.144531 5.875 -8.78125 C 6.5 -8.425781 6.976562 -7.914062 7.3125 -7.25 C 7.65625 -6.59375 7.828125 -5.835938 7.828125 -4.984375 L 7.828125 -4.390625 C 7.828125 -3.503906 7.65625 -2.726562 7.3125 -2.0625 C 6.976562 -1.40625 6.492188 -0.898438 5.859375 -0.546875 C 5.234375 -0.191406 4.503906 -0.0078125 3.671875 0 Z M 2.3125 -8.3125 L 2.3125 -1 L 3.609375 -1 C 4.554688 -1 5.289062 -1.296875 5.8125 -1.890625 C 6.34375 -2.484375 6.609375 -3.320312 6.609375 -4.40625 L 6.609375 -4.953125 C 6.609375 -6.015625 6.359375 -6.835938 5.859375 -7.421875 C 5.367188 -8.015625 4.664062 -8.3125 3.75 -8.3125 Z M 2.3125 -8.3125 "/></g></g></g><g fill="#c39c78" fill-opacity="1"><g transform="translate(87.080395, 202.258001)"><g><path d="M 6.359375 -4.3125 L 2.3125 -4.3125 L 2.3125 -1 L 7.015625 -1 L 7.015625 0 L 1.078125 0 L 1.078125 -9.328125 L 6.953125 -9.328125 L 6.953125 -8.3125 L 2.3125 -8.3125 L 2.3125 -5.3125 L 6.359375 -5.3125 Z M 6.359375 -4.3125 "/></g></g></g><g fill="#c39c78" fill-opacity="1"><g transform="translate(103.719081, 202.258001)"><g><path d="M 4.5 -3.78125 L 2.3125 -3.78125 L 2.3125 0 L 1.078125 0 L 1.078125 -9.328125 L 4.171875 -9.328125 C 5.222656 -9.328125 6.03125 -9.085938 6.59375 -8.609375 C 7.15625 -8.128906 7.4375 -7.4375 7.4375 -6.53125 C 7.4375 -5.945312 7.28125 -5.4375 6.96875 -5 C 6.65625 -4.570312 6.21875 -4.25 5.65625 -4.03125 L 7.84375 -0.078125 L 7.84375 0 L 6.53125 0 Z M 2.3125 -4.78125 L 4.203125 -4.78125 C 4.816406 -4.78125 5.300781 -4.9375 5.65625 -5.25 C 6.019531 -5.570312 6.203125 -6 6.203125 -6.53125 C 6.203125 -7.101562 6.03125 -7.539062 5.6875 -7.84375 C 5.34375 -8.15625 4.847656 -8.3125 4.203125 -8.3125 L 2.3125 -8.3125 Z M 2.3125 -4.78125 "/></g></g></g><g fill="#c39c78" fill-opacity="1"><g transform="translate(120.979581, 202.258001)"><g><path d="M 8.25 0 L 7.015625 0 L 2.3125 -7.1875 L 2.3125 0 L 1.078125 0 L 1.078125 -9.328125 L 2.3125 -9.328125 L 7.03125 -2.109375 L 7.03125 -9.328125 L 8.25 -9.328125 Z M 8.25 0 "/></g></g></g><g fill="#c39c78" fill-opacity="1"><g transform="translate(139.515764, 202.258001)"><g/></g></g><g fill="#c39c78" fill-opacity="1"><g transform="translate(151.942777, 202.258001)"><g><path d="M 1.078125 0 L 1.078125 -9.328125 L 4.140625 -9.328125 C 5.148438 -9.328125 5.910156 -9.117188 6.421875 -8.703125 C 6.929688 -8.285156 7.1875 -7.664062 7.1875 -6.84375 C 7.1875 -6.40625 7.0625 -6.019531 6.8125 -5.6875 C 6.5625 -5.351562 6.222656 -5.09375 5.796875 -4.90625 C 6.304688 -4.769531 6.707031 -4.503906 7 -4.109375 C 7.289062 -3.710938 7.4375 -3.238281 7.4375 -2.6875 C 7.4375 -1.851562 7.164062 -1.195312 6.625 -0.71875 C 6.082031 -0.238281 5.3125 0 4.3125 0 Z M 2.3125 -4.359375 L 2.3125 -1 L 4.34375 -1 C 4.914062 -1 5.367188 -1.144531 5.703125 -1.4375 C 6.035156 -1.738281 6.203125 -2.148438 6.203125 -2.671875 C 6.203125 -3.796875 5.585938 -4.359375 4.359375 -4.359375 Z M 2.3125 -5.34375 L 4.171875 -5.34375 C 4.710938 -5.34375 5.144531 -5.476562 5.46875 -5.75 C 5.789062 -6.019531 5.953125 -6.382812 5.953125 -6.84375 C 5.953125 -7.363281 5.800781 -7.738281 5.5 -7.96875 C 5.195312 -8.195312 4.742188 -8.3125 4.140625 -8.3125 L 2.3125 -8.3125 Z M 2.3125 -5.34375 "/></g></g></g><g fill="#c39c78" fill-opacity="1"><g transform="translate(169.293024, 202.258001)"><g><path d="M 7.65625 -9.328125 L 7.65625 -2.984375 C 7.644531 -2.109375 7.363281 -1.390625 6.8125 -0.828125 C 6.269531 -0.265625 5.53125 0.046875 4.59375 0.109375 L 4.265625 0.125 C 3.242188 0.125 2.425781 -0.148438 1.8125 -0.703125 C 1.207031 -1.253906 0.898438 -2.007812 0.890625 -2.96875 L 0.890625 -9.328125 L 2.109375 -9.328125 L 2.109375 -3.015625 C 2.109375 -2.335938 2.296875 -1.8125 2.671875 -1.4375 C 3.046875 -1.0625 3.578125 -0.875 4.265625 -0.875 C 4.960938 -0.875 5.492188 -1.0625 5.859375 -1.4375 C 6.234375 -1.8125 6.421875 -2.332031 6.421875 -3 L 6.421875 -9.328125 Z M 7.65625 -9.328125 "/></g></g></g><g fill="#c39c78" fill-opacity="1"><g transform="translate(186.983026, 202.258001)"><g><path d="M 2.40625 0 L 1.171875 0 L 1.171875 -9.328125 L 2.40625 -9.328125 Z M 2.40625 0 "/></g></g></g><g fill="#c39c78" fill-opacity="1"><g transform="translate(199.730562, 202.258001)"><g><path d="M 2.3125 -1 L 6.734375 -1 L 6.734375 0 L 1.078125 0 L 1.078125 -9.328125 L 2.3125 -9.328125 Z M 2.3125 -1 "/></g></g></g><g fill="#c39c78" fill-opacity="1"><g transform="translate(215.971799, 202.258001)"><g><path d="M 1.078125 0 L 1.078125 -9.328125 L 3.71875 -9.328125 C 4.53125 -9.328125 5.25 -9.144531 5.875 -8.78125 C 6.5 -8.425781 6.976562 -7.914062 7.3125 -7.25 C 7.65625 -6.59375 7.828125 -5.835938 7.828125 -4.984375 L 7.828125 -4.390625 C 7.828125 -3.503906 7.65625 -2.726562 7.3125 -2.0625 C 6.976562 -1.40625 6.492188 -0.898438 5.859375 -0.546875 C 5.234375 -0.191406 4.503906 -0.0078125 3.671875 0 Z M 2.3125 -8.3125 L 2.3125 -1 L 3.609375 -1 C 4.554688 -1 5.289062 -1.296875 5.8125 -1.890625 C 6.34375 -2.484375 6.609375 -3.320312 6.609375 -4.40625 L 6.609375 -4.953125 C 6.609375 -6.015625 6.359375 -6.835938 5.859375 -7.421875 C 5.367188 -8.015625 4.664062 -8.3125 3.75 -8.3125 Z M 2.3125 -8.3125 "/></g></g></g><g fill="#c39c78" fill-opacity="1"><g transform="translate(233.757958, 202.258001)"><g><path d="M 2.40625 0 L 1.171875 0 L 1.171875 -9.328125 L 2.40625 -9.328125 Z M 2.40625 0 "/></g></g></g><g fill="#c39c78" fill-opacity="1"><g transform="translate(246.505494, 202.258001)"><g><path d="M 8.25 0 L 7.015625 0 L 2.3125 -7.1875 L 2.3125 0 L 1.078125 0 L 1.078125 -9.328125 L 2.3125 -9.328125 L 7.03125 -2.109375 L 7.03125 -9.328125 L 8.25 -9.328125 Z M 8.25 0 "/></g></g></g><g fill="#c39c78" fill-opacity="1"><g transform="translate(265.041676, 202.258001)"><g><path d="M 7.96875 -1.21875 C 7.65625 -0.769531 7.210938 -0.429688 6.640625 -0.203125 C 6.078125 0.015625 5.421875 0.125 4.671875 0.125 C 3.910156 0.125 3.234375 -0.0507812 2.640625 -0.40625 C 2.054688 -0.757812 1.601562 -1.265625 1.28125 -1.921875 C 0.957031 -2.585938 0.789062 -3.351562 0.78125 -4.21875 L 0.78125 -5.03125 C 0.78125 -6.4375 1.109375 -7.523438 1.765625 -8.296875 C 2.421875 -9.066406 3.34375 -9.453125 4.53125 -9.453125 C 5.5 -9.453125 6.28125 -9.203125 6.875 -8.703125 C 7.476562 -8.210938 7.84375 -7.507812 7.96875 -6.59375 L 6.734375 -6.59375 C 6.503906 -7.832031 5.769531 -8.453125 4.53125 -8.453125 C 3.707031 -8.453125 3.082031 -8.160156 2.65625 -7.578125 C 2.238281 -6.992188 2.023438 -6.15625 2.015625 -5.0625 L 2.015625 -4.296875 C 2.015625 -3.253906 2.253906 -2.421875 2.734375 -1.796875 C 3.210938 -1.179688 3.859375 -0.875 4.671875 -0.875 C 5.140625 -0.875 5.546875 -0.925781 5.890625 -1.03125 C 6.234375 -1.132812 6.519531 -1.304688 6.75 -1.546875 L 6.75 -3.640625 L 4.59375 -3.640625 L 4.59375 -4.640625 L 7.96875 -4.640625 Z M 7.96875 -1.21875 "/></g></g></g></svg>