<svg xmlns="http://www.w3.org/2000/svg" xmlns:xlink="http://www.w3.org/1999/xlink" width="500" zoomAndPan="magnify" viewBox="0 0 375 374.999991" height="500" preserveAspectRatio="xMidYMid meet" version="1.0"><defs><g/><clipPath id="4e0b2d2cc7"><path d="M 15.605469 85 L 340.917969 85 L 340.917969 192 L 15.605469 192 Z M 15.605469 85 " clip-rule="nonzero"/></clipPath><clipPath id="4fb03f49db"><path d="M 86 37.5 L 92 37.5 L 92 87 L 86 87 Z M 86 37.5 " clip-rule="nonzero"/></clipPath></defs><path fill="#333333" d="M 99.972656 101.808594 C 101.238281 102.335938 102.5 102.855469 103.753906 103.378906 C 105.003906 103.894531 106.25 104.410156 107.492188 104.925781 C 107.492188 106.527344 107.492188 108.113281 107.492188 109.703125 C 106.25 109.199219 105.003906 108.691406 103.753906 108.183594 C 102.5 107.675781 101.238281 107.164062 99.972656 106.652344 C 99.972656 105.039062 99.972656 103.433594 99.972656 101.808594 M 90.917969 104.9375 C 92.222656 105.464844 93.527344 105.988281 94.824219 106.507812 C 96.113281 107.027344 97.398438 107.546875 98.679688 108.0625 C 98.679688 109.671875 98.679688 111.285156 98.679688 112.898438 C 97.398438 112.394531 96.113281 111.890625 94.824219 111.382812 C 93.527344 110.871094 92.222656 110.359375 90.917969 109.84375 C 90.917969 108.207031 90.917969 106.574219 90.917969 104.9375 Z M 99.972656 108.582031 C 101.238281 109.089844 102.5 109.597656 103.753906 110.105469 C 105.003906 110.605469 106.25 111.109375 107.492188 111.605469 C 107.492188 113.195312 107.492188 114.78125 107.492188 116.371094 C 106.25 115.882812 105.003906 115.390625 103.753906 114.898438 C 102.5 114.40625 101.238281 113.910156 99.972656 113.410156 C 99.972656 111.800781 99.972656 110.191406 99.972656 108.582031 Z M 90.917969 111.808594 C 92.222656 112.316406 93.527344 112.824219 94.824219 113.332031 C 96.113281 113.835938 97.398438 114.335938 98.679688 114.835938 C 98.679688 116.457031 98.679688 118.070312 98.679688 119.683594 C 97.398438 119.195312 96.113281 118.703125 94.824219 118.210938 C 93.527344 117.714844 92.222656 117.222656 90.917969 116.71875 C 90.917969 115.085938 90.917969 113.449219 90.917969 111.808594 Z M 99.972656 115.339844 C 101.238281 115.835938 102.5 116.328125 103.753906 116.816406 C 105.003906 117.304688 106.25 117.792969 107.492188 118.277344 C 107.492188 119.871094 107.492188 121.457031 107.492188 123.042969 C 106.25 122.570312 105.003906 122.097656 103.753906 121.621094 C 102.5 121.140625 101.238281 120.660156 99.972656 120.175781 C 99.972656 118.566406 99.972656 116.957031 99.972656 115.339844 Z M 90.917969 118.683594 C 92.222656 119.175781 93.527344 119.671875 94.824219 120.160156 C 96.113281 120.648438 97.398438 121.132812 98.679688 121.617188 C 98.679688 123.230469 98.679688 124.84375 98.679688 126.457031 C 97.398438 125.984375 96.113281 125.507812 94.824219 125.03125 C 93.527344 124.554688 92.222656 124.074219 90.917969 123.589844 C 90.917969 121.953125 90.917969 120.320312 90.917969 118.683594 Z M 99.972656 122.105469 C 101.238281 122.585938 102.5 123.0625 103.753906 123.535156 C 105.003906 124.011719 106.25 124.480469 107.492188 124.949219 C 107.492188 126.535156 107.492188 128.125 107.492188 129.710938 C 106.25 129.253906 105.003906 128.792969 103.753906 128.332031 C 102.5 127.867188 101.238281 127.402344 99.972656 126.933594 C 99.972656 125.324219 99.972656 123.714844 99.972656 122.105469 Z M 90.917969 125.550781 C 92.222656 126.03125 93.527344 126.507812 94.824219 126.980469 C 96.113281 127.453125 97.398438 127.925781 98.679688 128.394531 C 98.679688 130.007812 98.679688 131.617188 98.679688 133.234375 C 97.398438 132.773438 96.113281 132.316406 94.824219 131.855469 C 93.527344 131.394531 92.222656 130.925781 90.917969 130.460938 C 90.917969 128.824219 90.917969 127.1875 90.917969 125.550781 Z M 99.972656 128.867188 C 101.238281 129.332031 102.5 129.792969 103.753906 130.25 C 105.003906 130.707031 106.25 131.164062 107.492188 131.617188 C 107.492188 133.207031 107.492188 134.792969 107.492188 136.378906 C 106.25 135.9375 105.003906 135.492188 103.753906 135.046875 C 102.5 134.597656 101.238281 134.144531 99.972656 133.695312 C 99.972656 132.085938 99.972656 130.476562 99.972656 128.867188 Z M 90.917969 132.429688 C 92.222656 132.890625 93.527344 133.351562 94.824219 133.8125 C 96.113281 134.269531 97.398438 134.722656 98.679688 135.175781 C 98.679688 136.789062 98.679688 138.402344 98.679688 140.015625 C 97.398438 139.574219 96.113281 139.128906 94.824219 138.683594 C 93.527344 138.238281 92.222656 137.789062 90.917969 137.335938 C 90.917969 135.699219 90.917969 134.066406 90.917969 132.429688 Z M 99.972656 135.632812 C 101.238281 136.082031 102.5 136.527344 103.753906 136.96875 C 105.003906 137.414062 106.25 137.851562 107.492188 138.292969 L 107.492188 139.703125 L 104.117188 141.890625 L 103.753906 141.765625 C 102.5 141.332031 101.238281 140.898438 99.972656 140.460938 C 99.972656 138.851562 99.972656 137.242188 99.972656 135.632812 Z M 90.917969 139.300781 C 92.222656 139.746094 93.527344 140.191406 94.824219 140.632812 C 96.113281 141.074219 97.398438 141.511719 98.679688 141.949219 L 98.679688 145.417969 L 97.28125 146.324219 L 94.824219 145.503906 C 93.527344 145.074219 92.222656 144.640625 90.917969 144.203125 C 90.917969 142.570312 90.917969 140.933594 90.917969 139.300781 Z M 99.972656 142.390625 L 102.183594 143.144531 L 99.972656 144.578125 Z M 90.917969 146.167969 C 92.222656 146.597656 93.527344 147.027344 94.824219 147.453125 L 95.296875 147.609375 L 90.917969 150.449219 Z M 80.296875 101.808594 C 79.027344 102.335938 77.765625 102.855469 76.515625 103.378906 C 75.265625 103.894531 74.019531 104.410156 72.777344 104.925781 C 72.777344 106.527344 72.777344 108.113281 72.777344 109.703125 C 74.019531 109.199219 75.265625 108.691406 76.515625 108.183594 C 77.769531 107.675781 79.027344 107.164062 80.296875 106.652344 C 80.296875 105.039062 80.296875 103.433594 80.296875 101.808594 Z M 89.347656 104.9375 C 88.042969 105.464844 86.742188 105.988281 85.445312 106.507812 C 84.152344 107.027344 82.867188 107.546875 81.589844 108.0625 C 81.589844 109.671875 81.589844 111.285156 81.589844 112.898438 C 82.867188 112.394531 84.152344 111.890625 85.445312 111.382812 C 86.742188 110.871094 88.042969 110.359375 89.347656 109.84375 C 89.347656 108.207031 89.347656 106.574219 89.347656 104.9375 Z M 80.296875 108.582031 C 79.027344 109.089844 77.765625 109.597656 76.515625 110.105469 C 75.265625 110.605469 74.019531 111.109375 72.777344 111.605469 C 72.777344 113.195312 72.777344 114.78125 72.777344 116.371094 C 74.015625 115.882812 75.265625 115.390625 76.515625 114.898438 C 77.769531 114.40625 79.027344 113.910156 80.296875 113.410156 C 80.296875 111.800781 80.296875 110.191406 80.296875 108.582031 Z M 89.347656 111.808594 C 88.042969 112.316406 86.742188 112.824219 85.445312 113.332031 C 84.152344 113.835938 82.867188 114.335938 81.589844 114.835938 C 81.589844 116.457031 81.589844 118.070312 81.589844 119.683594 C 82.867188 119.195312 84.152344 118.703125 85.445312 118.210938 C 86.742188 117.714844 88.042969 117.222656 89.347656 116.71875 C 89.347656 115.085938 89.347656 113.449219 89.347656 111.808594 Z M 80.296875 115.339844 C 79.027344 115.835938 77.765625 116.328125 76.515625 116.816406 C 75.265625 117.304688 74.015625 117.792969 72.777344 118.277344 C 72.777344 119.871094 72.777344 121.457031 72.777344 123.042969 C 74.015625 122.570312 75.265625 122.097656 76.515625 121.621094 C 77.769531 121.140625 79.027344 120.660156 80.296875 120.175781 C 80.296875 118.566406 80.296875 116.957031 80.296875 115.339844 Z M 89.347656 118.683594 C 88.042969 119.175781 86.742188 119.671875 85.445312 120.160156 C 84.152344 120.648438 82.867188 121.132812 81.589844 121.617188 C 81.589844 123.230469 81.589844 124.84375 81.589844 126.457031 C 82.867188 125.984375 84.152344 125.507812 85.445312 125.03125 C 86.742188 124.554688 88.042969 124.074219 89.347656 123.589844 C 89.347656 121.953125 89.347656 120.320312 89.347656 118.683594 Z M 80.296875 122.105469 C 79.027344 122.585938 77.765625 123.0625 76.515625 123.535156 C 75.265625 124.011719 74.015625 124.480469 72.777344 124.949219 C 72.777344 126.535156 72.777344 128.125 72.777344 129.710938 C 74.015625 129.253906 75.265625 128.792969 76.515625 128.332031 C 77.769531 127.867188 79.027344 127.402344 80.296875 126.933594 C 80.296875 125.324219 80.296875 123.714844 80.296875 122.105469 Z M 89.347656 125.550781 C 88.042969 126.03125 86.742188 126.507812 85.445312 126.980469 C 84.152344 127.453125 82.867188 127.925781 81.589844 128.394531 C 81.589844 130.007812 81.589844 131.617188 81.589844 133.234375 C 82.867188 132.773438 84.152344 132.316406 85.445312 131.855469 C 86.742188 131.394531 88.042969 130.925781 89.347656 130.460938 C 89.347656 128.824219 89.347656 127.1875 89.347656 125.550781 Z M 80.296875 128.867188 C 79.027344 129.332031 77.765625 129.792969 76.515625 130.25 C 75.265625 130.707031 74.015625 131.164062 72.777344 131.617188 C 72.777344 133.207031 72.777344 134.792969 72.777344 136.378906 C 74.015625 135.9375 75.265625 135.492188 76.515625 135.046875 C 77.769531 134.597656 79.027344 134.144531 80.296875 133.695312 C 80.296875 132.085938 80.296875 130.476562 80.296875 128.867188 Z M 89.347656 132.429688 C 88.042969 132.890625 86.742188 133.351562 85.445312 133.8125 C 84.152344 134.269531 82.867188 134.722656 81.589844 135.175781 C 81.589844 136.789062 81.589844 138.402344 81.589844 140.015625 C 82.867188 139.574219 84.152344 139.128906 85.445312 138.683594 C 86.742188 138.238281 88.042969 137.789062 89.347656 137.335938 C 89.347656 135.699219 89.347656 134.066406 89.347656 132.429688 Z M 80.296875 135.632812 C 79.027344 136.082031 77.765625 136.527344 76.515625 136.96875 C 75.265625 137.414062 74.015625 137.851562 72.777344 138.292969 C 72.777344 139.878906 72.777344 141.46875 72.777344 143.054688 C 74.015625 142.628906 75.265625 142.199219 76.515625 141.765625 C 77.769531 141.332031 79.027344 140.898438 80.296875 140.460938 C 80.296875 138.851562 80.296875 137.242188 80.296875 135.632812 Z M 89.347656 139.300781 C 88.042969 139.746094 86.742188 140.191406 85.445312 140.632812 C 84.152344 141.074219 82.871094 141.511719 81.589844 141.949219 C 81.589844 143.5625 81.589844 145.175781 81.589844 146.789062 C 82.871094 146.363281 84.152344 145.933594 85.445312 145.503906 C 86.742188 145.074219 88.042969 144.640625 89.347656 144.203125 C 89.347656 142.570312 89.347656 140.933594 89.347656 139.300781 Z M 80.296875 142.390625 C 79.027344 142.824219 77.765625 143.253906 76.515625 143.683594 C 75.265625 144.109375 74.015625 144.535156 72.777344 144.960938 C 72.777344 146.546875 72.777344 148.136719 72.777344 149.722656 C 74.015625 149.308594 75.265625 148.894531 76.515625 148.480469 C 77.769531 148.0625 79.027344 147.640625 80.296875 147.21875 C 80.296875 145.613281 80.296875 144 80.296875 142.390625 Z M 89.347656 146.167969 C 88.042969 146.597656 86.742188 147.027344 85.445312 147.453125 C 84.152344 147.878906 82.871094 148.304688 81.589844 148.726562 C 81.589844 150.34375 81.589844 151.957031 81.589844 153.570312 C 82.871094 153.160156 84.152344 152.746094 85.445312 152.335938 C 86.742188 151.917969 88.042969 151.5 89.347656 151.082031 C 89.347656 149.445312 89.347656 147.8125 89.347656 146.167969 Z M 80.296875 149.152344 C 79.027344 149.570312 77.765625 149.984375 76.515625 150.398438 C 75.265625 150.808594 74.015625 151.21875 72.777344 151.628906 C 72.777344 153.222656 72.777344 154.808594 72.777344 156.398438 C 74.015625 156 75.265625 155.601562 76.511719 155.199219 C 77.769531 154.796875 79.027344 154.390625 80.296875 153.984375 C 80.296875 152.375 80.296875 150.765625 80.296875 149.152344 Z M 84.582031 154.558594 L 81.589844 155.507812 L 81.589844 156.496094 Z M 80.296875 155.917969 C 79.027344 156.320312 77.765625 156.71875 76.511719 157.117188 C 75.265625 157.511719 74.015625 157.910156 72.777344 158.300781 L 72.777344 162.214844 L 80.296875 157.335938 Z M 89.347656 98.054688 C 88.042969 98.597656 86.742188 99.136719 85.445312 99.671875 C 84.152344 100.207031 82.867188 100.742188 81.589844 101.273438 C 81.589844 102.898438 81.589844 104.511719 81.589844 106.125 C 82.867188 105.605469 84.152344 105.082031 85.445312 104.558594 C 86.742188 104.035156 88.042969 103.507812 89.347656 102.972656 C 89.347656 101.339844 89.347656 99.703125 89.347656 98.054688 Z M 90.917969 98.054688 C 92.222656 98.597656 93.527344 99.136719 94.824219 99.671875 C 96.113281 100.207031 97.398438 100.742188 98.679688 101.273438 C 98.679688 102.898438 98.679688 104.511719 98.679688 106.125 C 97.398438 105.605469 96.113281 105.082031 94.824219 104.558594 C 93.527344 104.035156 92.222656 103.507812 90.917969 102.972656 C 90.917969 101.339844 90.917969 99.703125 90.917969 98.054688 Z M 90.917969 98.054688 " fill-opacity="1" fill-rule="evenodd"/><path fill="#333333" d="M 90.132812 88.496094 L 110.671875 96.882812 L 110.671875 104.808594 L 90.132812 96.417969 L 69.59375 104.808594 L 69.59375 96.882812 Z M 90.132812 88.496094 " fill-opacity="1" fill-rule="evenodd"/><g clip-path="url(#4e0b2d2cc7)"><path fill="#333333" d="M 309.699219 192.027344 L 178.171875 105.863281 L 46.640625 192.027344 L 55.007812 192.027344 L 178.171875 111.34375 L 301.332031 192.027344 Z M 178.171875 102.355469 L 315.054688 192.027344 L 340.703125 192.027344 L 178.171875 85.554688 L 15.636719 192.027344 L 41.285156 192.027344 Z M 178.171875 102.355469 " fill-opacity="1" fill-rule="evenodd"/></g><path fill="#333333" d="M 161.871094 161.191406 L 176.988281 161.191406 L 176.988281 146.054688 C 172.964844 146.347656 169.332031 148.113281 166.628906 150.816406 C 163.929688 153.523438 162.164062 157.160156 161.871094 161.191406 M 179.355469 146.054688 L 179.355469 161.1875 L 194.46875 161.1875 C 194.175781 157.160156 192.410156 153.523438 189.710938 150.816406 C 187.011719 148.113281 183.378906 146.347656 179.355469 146.054688 Z M 194.511719 163.5625 L 179.355469 163.5625 L 179.355469 178.742188 L 194.511719 178.742188 Z M 176.988281 163.5625 L 161.828125 163.5625 L 161.828125 178.742188 L 176.988281 178.742188 Z M 176.988281 163.5625 " fill-opacity="1" fill-rule="evenodd"/><g clip-path="url(#4fb03f49db)"><path fill="#c39c78" d="M 87.398438 37.5 C 97.929688 59.570312 84.742188 67.484375 90.132812 86.230469 C 80.917969 70.457031 92.136719 54.238281 87.398438 37.5 " fill-opacity="1" fill-rule="evenodd"/></g><path fill="#c39c78" d="M 79.519531 41.464844 C 90.054688 60.464844 76.867188 67.273438 82.257812 83.414062 C 73.042969 69.835938 84.261719 55.871094 79.519531 41.464844 " fill-opacity="1" fill-rule="evenodd"/><path fill="#c39c78" d="M 95.273438 41.464844 C 105.804688 60.464844 92.617188 67.273438 98.007812 83.414062 C 88.796875 69.835938 100.011719 55.871094 95.273438 41.464844 " fill-opacity="1" fill-rule="evenodd"/><g fill="#333333" fill-opacity="1"><g transform="translate(2.616274, 255.207352)"><g><path d="M 0.625 -50.875 L 0.625 -59.5625 L 28.484375 -59.5625 L 28.484375 -50.875 L 19.265625 -50.875 L 19.265625 0.09375 L 9.765625 0.09375 L 9.765625 -50.875 Z M 0.625 -50.875 "/></g></g></g><g fill="#333333" fill-opacity="1"><g transform="translate(31.731161, 255.207352)"><g><path d="M 34.3125 -34.21875 L 34.3125 -59.5625 L 43.796875 -59.5625 L 43.796875 -0.09375 L 34.3125 -0.09375 L 34.3125 -25.53125 L 13.34375 -25.53125 L 13.34375 -0.09375 L 3.859375 -0.09375 L 3.859375 -59.5625 L 13.34375 -59.5625 L 13.34375 -34.21875 Z M 34.3125 -34.21875 "/></g></g></g><g fill="#333333" fill-opacity="1"><g transform="translate(79.389988, 255.207352)"><g><path d="M 26.15625 -59.5625 C 30.632812 -59.5625 34.738281 -58.816406 38.46875 -57.328125 C 42.207031 -55.835938 45.359375 -53.660156 47.921875 -50.796875 C 50.367188 -48.109375 52.234375 -44.972656 53.515625 -41.390625 C 54.804688 -37.804688 55.453125 -33.984375 55.453125 -29.921875 C 55.453125 -21.140625 53.300781 -14.238281 49 -9.21875 C 43.863281 -3.25 36.25 -0.265625 26.15625 -0.265625 L 3.859375 -0.265625 L 3.859375 -59.5625 Z M 45.953125 -29.921875 C 45.953125 -35.890625 44.28125 -40.695312 40.9375 -44.34375 C 37.414062 -48.21875 32.488281 -50.15625 26.15625 -50.15625 L 13.34375 -50.15625 L 13.34375 -9.671875 L 26.15625 -9.671875 C 32.90625 -9.671875 37.890625 -11.34375 41.109375 -14.6875 C 44.335938 -17.914062 45.953125 -22.992188 45.953125 -29.921875 Z M 45.953125 -29.921875 "/></g></g></g><g fill="#333333" fill-opacity="1"><g transform="translate(136.723924, 255.207352)"><g/></g></g><g fill="#333333" fill-opacity="1"><g transform="translate(161.449176, 255.207352)"><g><path d="M 34.3125 -34.21875 L 34.3125 -59.5625 L 43.796875 -59.5625 L 43.796875 -0.09375 L 34.3125 -0.09375 L 34.3125 -25.53125 L 13.34375 -25.53125 L 13.34375 -0.09375 L 3.859375 -0.09375 L 3.859375 -59.5625 L 13.34375 -59.5625 L 13.34375 -34.21875 Z M 34.3125 -34.21875 "/></g></g></g><g fill="#333333" fill-opacity="1"><g transform="translate(209.108003, 255.207352)"><g><path d="M 31.171875 -60.5625 C 35.234375 -60.5625 39.023438 -59.769531 42.546875 -58.1875 C 46.066406 -56.601562 49.171875 -54.390625 51.859375 -51.546875 C 54.546875 -48.710938 56.648438 -45.441406 58.171875 -41.734375 C 59.703125 -38.035156 60.46875 -34.066406 60.46875 -29.828125 C 60.46875 -25.648438 59.703125 -21.707031 58.171875 -18 C 56.648438 -14.300781 54.546875 -11.03125 51.859375 -8.1875 C 49.171875 -5.351562 46.066406 -3.144531 42.546875 -1.5625 C 39.023438 0.0195312 35.234375 0.8125 31.171875 0.8125 C 27.171875 0.8125 23.394531 0.0195312 19.84375 -1.5625 C 16.289062 -3.144531 13.171875 -5.351562 10.484375 -8.1875 C 7.796875 -11.03125 5.6875 -14.300781 4.15625 -18 C 2.632812 -21.707031 1.875 -25.648438 1.875 -29.828125 C 1.875 -34.066406 2.632812 -38.035156 4.15625 -41.734375 C 5.6875 -45.441406 7.796875 -48.710938 10.484375 -51.546875 C 13.171875 -54.390625 16.289062 -56.601562 19.84375 -58.1875 C 23.394531 -59.769531 27.171875 -60.5625 31.171875 -60.5625 Z M 50.96875 -29.828125 C 50.96875 -33.765625 50.070312 -37.347656 48.28125 -40.578125 C 46.488281 -43.804688 44.097656 -46.375 41.109375 -48.28125 C 38.128906 -50.195312 34.816406 -51.15625 31.171875 -51.15625 C 27.523438 -51.15625 24.207031 -50.195312 21.21875 -48.28125 C 18.238281 -46.375 15.851562 -43.804688 14.0625 -40.578125 C 12.269531 -37.347656 11.375 -33.765625 11.375 -29.828125 C 11.375 -25.941406 12.269531 -22.382812 14.0625 -19.15625 C 15.851562 -15.9375 18.238281 -13.367188 21.21875 -11.453125 C 24.207031 -9.546875 27.523438 -8.59375 31.171875 -8.59375 C 34.816406 -8.59375 38.128906 -9.546875 41.109375 -11.453125 C 44.097656 -13.367188 46.488281 -15.9375 48.28125 -19.15625 C 50.070312 -22.382812 50.96875 -25.941406 50.96875 -29.828125 Z M 50.96875 -29.828125 "/></g></g></g><g fill="#333333" fill-opacity="1"><g transform="translate(271.548246, 255.207352)"><g><path d="M 0.625 -50.875 L 0.625 -59.5625 L 28.484375 -59.5625 L 28.484375 -50.875 L 19.265625 -50.875 L 19.265625 0.09375 L 9.765625 0.09375 L 9.765625 -50.875 Z M 0.625 -50.875 "/></g></g></g><g fill="#333333" fill-opacity="1"><g transform="translate(300.663134, 255.207352)"><g><path d="M 3.859375 -0.09375 L 3.859375 -59.5625 L 35.203125 -59.5625 L 35.203125 -50.96875 L 12.625 -50.96875 L 12.625 -34.21875 L 33.234375 -34.21875 L 33.234375 -25.53125 L 12.625 -25.53125 L 12.625 -8.78125 L 35.203125 -8.78125 L 35.203125 -0.09375 Z M 3.859375 -0.09375 "/></g></g></g><g fill="#333333" fill-opacity="1"><g transform="translate(337.661429, 255.207352)"><g><path d="M 13.34375 -59.5625 L 13.34375 -9.5 L 35.65625 -9.5 L 35.65625 -0.09375 L 3.859375 -0.09375 L 3.859375 -59.5625 Z M 13.34375 -59.5625 "/></g></g></g><g fill="#c39c78" fill-opacity="1"><g transform="translate(19.898723, 298.399812)"><g><path d="M 3.46875 -12.125 L 7.4375 -2.234375 L 11.40625 -12.125 L 13.484375 -12.125 L 13.484375 0 L 11.875 0 L 11.875 -4.71875 L 12.03125 -9.828125 L 8.046875 0 L 6.828125 0 L 2.84375 -9.796875 L 3 -4.71875 L 3 0 L 1.40625 0 L 1.40625 -12.125 Z M 3.46875 -12.125 "/></g></g></g><g fill="#c39c78" fill-opacity="1"><g transform="translate(46.723704, 298.399812)"><g><path d="M 10.734375 -5.671875 C 10.734375 -4.484375 10.535156 -3.445312 10.140625 -2.5625 C 9.742188 -1.675781 9.175781 -1 8.4375 -0.53125 C 7.707031 -0.0625 6.851562 0.171875 5.875 0.171875 C 4.914062 0.171875 4.066406 -0.0625 3.328125 -0.53125 C 2.585938 -1 2.015625 -1.664062 1.609375 -2.53125 C 1.203125 -3.40625 0.992188 -4.414062 0.984375 -5.5625 L 0.984375 -6.4375 C 0.984375 -7.601562 1.1875 -8.632812 1.59375 -9.53125 C 2 -10.425781 2.570312 -11.109375 3.3125 -11.578125 C 4.050781 -12.054688 4.898438 -12.296875 5.859375 -12.296875 C 6.828125 -12.296875 7.679688 -12.0625 8.421875 -11.59375 C 9.171875 -11.125 9.742188 -10.441406 10.140625 -9.546875 C 10.535156 -8.660156 10.734375 -7.625 10.734375 -6.4375 Z M 9.140625 -6.453125 C 9.140625 -7.890625 8.851562 -8.992188 8.28125 -9.765625 C 7.707031 -10.535156 6.898438 -10.921875 5.859375 -10.921875 C 4.847656 -10.921875 4.050781 -10.535156 3.46875 -9.765625 C 2.882812 -8.992188 2.585938 -7.925781 2.578125 -6.5625 L 2.578125 -5.671875 C 2.578125 -4.273438 2.867188 -3.175781 3.453125 -2.375 C 4.035156 -1.582031 4.84375 -1.1875 5.875 -1.1875 C 6.90625 -1.1875 7.703125 -1.5625 8.265625 -2.3125 C 8.835938 -3.070312 9.128906 -4.15625 9.140625 -5.5625 Z M 9.140625 -6.453125 "/></g></g></g><g fill="#c39c78" fill-opacity="1"><g transform="translate(70.382563, 298.399812)"><g><path d="M 1.40625 0 L 1.40625 -12.125 L 4.828125 -12.125 C 5.890625 -12.125 6.820312 -11.890625 7.625 -11.421875 C 8.4375 -10.960938 9.0625 -10.300781 9.5 -9.4375 C 9.945312 -8.570312 10.175781 -7.582031 10.1875 -6.46875 L 10.1875 -5.703125 C 10.1875 -4.554688 9.960938 -3.550781 9.515625 -2.6875 C 9.078125 -1.832031 8.445312 -1.171875 7.625 -0.703125 C 6.8125 -0.242188 5.859375 -0.0078125 4.765625 0 Z M 3 -10.8125 L 3 -1.3125 L 4.6875 -1.3125 C 5.925781 -1.3125 6.882812 -1.691406 7.5625 -2.453125 C 8.25 -3.222656 8.59375 -4.316406 8.59375 -5.734375 L 8.59375 -6.4375 C 8.59375 -7.8125 8.269531 -8.878906 7.625 -9.640625 C 6.976562 -10.410156 6.0625 -10.800781 4.875 -10.8125 Z M 3 -10.8125 "/></g></g></g><g fill="#c39c78" fill-opacity="1"><g transform="translate(93.499848, 298.399812)"><g><path d="M 8.265625 -5.609375 L 3 -5.609375 L 3 -1.3125 L 9.109375 -1.3125 L 9.109375 0 L 1.40625 0 L 1.40625 -12.125 L 9.03125 -12.125 L 9.03125 -10.8125 L 3 -10.8125 L 3 -6.921875 L 8.265625 -6.921875 Z M 8.265625 -5.609375 "/></g></g></g><g fill="#c39c78" fill-opacity="1"><g transform="translate(115.125724, 298.399812)"><g><path d="M 5.859375 -4.90625 L 3 -4.90625 L 3 0 L 1.40625 0 L 1.40625 -12.125 L 5.421875 -12.125 C 6.785156 -12.125 7.832031 -11.8125 8.5625 -11.1875 C 9.300781 -10.570312 9.671875 -9.671875 9.671875 -8.484375 C 9.671875 -7.722656 9.46875 -7.0625 9.0625 -6.5 C 8.65625 -5.945312 8.085938 -5.53125 7.359375 -5.25 L 10.203125 -0.09375 L 10.203125 0 L 8.484375 0 Z M 3 -6.21875 L 5.46875 -6.21875 C 6.257812 -6.21875 6.890625 -6.421875 7.359375 -6.828125 C 7.828125 -7.242188 8.0625 -7.796875 8.0625 -8.484375 C 8.0625 -9.234375 7.835938 -9.804688 7.390625 -10.203125 C 6.941406 -10.609375 6.296875 -10.8125 5.453125 -10.8125 L 3 -10.8125 Z M 3 -6.21875 "/></g></g></g><g fill="#c39c78" fill-opacity="1"><g transform="translate(137.559794, 298.399812)"><g><path d="M 10.734375 0 L 9.125 0 L 3.015625 -9.34375 L 3.015625 0 L 1.40625 0 L 1.40625 -12.125 L 3.015625 -12.125 L 9.140625 -2.734375 L 9.140625 -12.125 L 10.734375 -12.125 Z M 10.734375 0 "/></g></g></g><g fill="#c39c78" fill-opacity="1"><g transform="translate(161.651912, 298.399812)"><g/></g></g><g fill="#c39c78" fill-opacity="1"><g transform="translate(177.803731, 298.399812)"><g><path d="M 1.40625 0 L 1.40625 -12.125 L 5.375 -12.125 C 6.6875 -12.125 7.675781 -11.851562 8.34375 -11.3125 C 9.007812 -10.769531 9.34375 -9.960938 9.34375 -8.890625 C 9.34375 -8.328125 9.179688 -7.828125 8.859375 -7.390625 C 8.535156 -6.953125 8.097656 -6.613281 7.546875 -6.375 C 8.191406 -6.195312 8.707031 -5.847656 9.09375 -5.328125 C 9.476562 -4.816406 9.671875 -4.207031 9.671875 -3.5 C 9.671875 -2.40625 9.316406 -1.546875 8.609375 -0.921875 C 7.898438 -0.304688 6.898438 0 5.609375 0 Z M 3 -5.671875 L 3 -1.3125 L 5.65625 -1.3125 C 6.394531 -1.3125 6.976562 -1.503906 7.40625 -1.890625 C 7.84375 -2.273438 8.0625 -2.804688 8.0625 -3.484375 C 8.0625 -4.941406 7.265625 -5.671875 5.671875 -5.671875 Z M 3 -6.953125 L 5.421875 -6.953125 C 6.117188 -6.953125 6.675781 -7.125 7.09375 -7.46875 C 7.519531 -7.820312 7.734375 -8.300781 7.734375 -8.90625 C 7.734375 -9.570312 7.535156 -10.054688 7.140625 -10.359375 C 6.753906 -10.660156 6.164062 -10.8125 5.375 -10.8125 L 3 -10.8125 Z M 3 -6.953125 "/></g></g></g><g fill="#c39c78" fill-opacity="1"><g transform="translate(200.354447, 298.399812)"><g><path d="M 9.953125 -12.125 L 9.953125 -3.875 C 9.941406 -2.738281 9.578125 -1.804688 8.859375 -1.078125 C 8.148438 -0.347656 7.1875 0.0625 5.96875 0.15625 L 5.546875 0.171875 C 4.210938 0.171875 3.148438 -0.1875 2.359375 -0.90625 C 1.578125 -1.625 1.179688 -2.609375 1.171875 -3.859375 L 1.171875 -12.125 L 2.75 -12.125 L 2.75 -3.921875 C 2.75 -3.035156 2.988281 -2.347656 3.46875 -1.859375 C 3.957031 -1.378906 4.648438 -1.140625 5.546875 -1.140625 C 6.441406 -1.140625 7.128906 -1.378906 7.609375 -1.859375 C 8.097656 -2.347656 8.34375 -3.03125 8.34375 -3.90625 L 8.34375 -12.125 Z M 9.953125 -12.125 "/></g></g></g><g fill="#c39c78" fill-opacity="1"><g transform="translate(223.346754, 298.399812)"><g><path d="M 3.125 0 L 1.53125 0 L 1.53125 -12.125 L 3.125 -12.125 Z M 3.125 0 "/></g></g></g><g fill="#c39c78" fill-opacity="1"><g transform="translate(239.915168, 298.399812)"><g><path d="M 3.015625 -1.3125 L 8.765625 -1.3125 L 8.765625 0 L 1.40625 0 L 1.40625 -12.125 L 3.015625 -12.125 Z M 3.015625 -1.3125 "/></g></g></g><g fill="#c39c78" fill-opacity="1"><g transform="translate(261.024466, 298.399812)"><g><path d="M 1.40625 0 L 1.40625 -12.125 L 4.828125 -12.125 C 5.890625 -12.125 6.820312 -11.890625 7.625 -11.421875 C 8.4375 -10.960938 9.0625 -10.300781 9.5 -9.4375 C 9.945312 -8.570312 10.175781 -7.582031 10.1875 -6.46875 L 10.1875 -5.703125 C 10.1875 -4.554688 9.960938 -3.550781 9.515625 -2.6875 C 9.078125 -1.832031 8.445312 -1.171875 7.625 -0.703125 C 6.8125 -0.242188 5.859375 -0.0078125 4.765625 0 Z M 3 -10.8125 L 3 -1.3125 L 4.6875 -1.3125 C 5.925781 -1.3125 6.882812 -1.691406 7.5625 -2.453125 C 8.25 -3.222656 8.59375 -4.316406 8.59375 -5.734375 L 8.59375 -6.4375 C 8.59375 -7.8125 8.269531 -8.878906 7.625 -9.640625 C 6.976562 -10.410156 6.0625 -10.800781 4.875 -10.8125 Z M 3 -10.8125 "/></g></g></g><g fill="#c39c78" fill-opacity="1"><g transform="translate(284.141751, 298.399812)"><g><path d="M 3.125 0 L 1.53125 0 L 1.53125 -12.125 L 3.125 -12.125 Z M 3.125 0 "/></g></g></g><g fill="#c39c78" fill-opacity="1"><g transform="translate(300.710165, 298.399812)"><g><path d="M 10.734375 0 L 9.125 0 L 3.015625 -9.34375 L 3.015625 0 L 1.40625 0 L 1.40625 -12.125 L 3.015625 -12.125 L 9.140625 -2.734375 L 9.140625 -12.125 L 10.734375 -12.125 Z M 10.734375 0 "/></g></g></g><g fill="#c39c78" fill-opacity="1"><g transform="translate(324.802283, 298.399812)"><g><path d="M 10.359375 -1.59375 C 9.953125 -1 9.378906 -0.554688 8.640625 -0.265625 C 7.910156 0.0234375 7.054688 0.171875 6.078125 0.171875 C 5.085938 0.171875 4.207031 -0.0546875 3.4375 -0.515625 C 2.675781 -0.984375 2.082031 -1.644531 1.65625 -2.5 C 1.238281 -3.363281 1.023438 -4.359375 1.015625 -5.484375 L 1.015625 -6.546875 C 1.015625 -8.367188 1.441406 -9.78125 2.296875 -10.78125 C 3.148438 -11.789062 4.347656 -12.296875 5.890625 -12.296875 C 7.160156 -12.296875 8.179688 -11.972656 8.953125 -11.328125 C 9.722656 -10.679688 10.191406 -9.765625 10.359375 -8.578125 L 8.765625 -8.578125 C 8.460938 -10.179688 7.507812 -10.984375 5.90625 -10.984375 C 4.832031 -10.984375 4.015625 -10.601562 3.453125 -9.84375 C 2.898438 -9.09375 2.625 -8.003906 2.625 -6.578125 L 2.625 -5.59375 C 2.625 -4.226562 2.929688 -3.144531 3.546875 -2.34375 C 4.171875 -1.539062 5.015625 -1.140625 6.078125 -1.140625 C 6.679688 -1.140625 7.207031 -1.207031 7.65625 -1.34375 C 8.101562 -1.476562 8.472656 -1.703125 8.765625 -2.015625 L 8.765625 -4.734375 L 5.96875 -4.734375 L 5.96875 -6.046875 L 10.359375 -6.046875 Z M 10.359375 -1.59375 "/></g></g></g></svg>